<mxfile host="Electron" modified="2024-04-25T09:38:17.641Z" agent="Mozilla/5.0 (Windows NT 10.0; Win64; x64) AppleWebKit/537.36 (KHTML, like Gecko) draw.io/24.2.5 Chrome/120.0.6099.109 Electron/28.1.0 Safari/537.36" etag="Dj0l239O5cTRgjkpkb4p" version="24.2.5" type="device">
  <diagram id="vZDj8eIEbciN1BKe1KfX" name="ページ1">
    <mxGraphModel dx="1478" dy="836" grid="1" gridSize="10" guides="1" tooltips="1" connect="1" arrows="1" fold="1" page="1" pageScale="1" pageWidth="3300" pageHeight="2339" math="0" shadow="0">
      <root>
        <mxCell id="0" />
        <mxCell id="1" parent="0" />
        <mxCell id="O8FG5qYLEpIlAXNOrkcD-17" value="remote" style="shape=umlFrame;whiteSpace=wrap;html=1;" parent="1" vertex="1">
          <mxGeometry x="890" y="30" width="600" height="380" as="geometry" />
        </mxCell>
        <mxCell id="V4WoSLVtZ78Q0ZOOBIt7-3" value="reader" style="shape=umlFrame;whiteSpace=wrap;html=1;" parent="1" vertex="1">
          <mxGeometry x="1090" y="430" width="400" height="590" as="geometry" />
        </mxCell>
        <mxCell id="iccopPgQxlsV0LrsbhzL-1" value="datastore" style="shape=umlFrame;whiteSpace=wrap;html=1;width=80;height=30;" parent="1" vertex="1">
          <mxGeometry x="880" y="1330" width="240" height="160" as="geometry" />
        </mxCell>
        <mxCell id="O8FG5qYLEpIlAXNOrkcD-9" value="data" style="shape=umlFrame;whiteSpace=wrap;html=1;" parent="1" vertex="1">
          <mxGeometry x="510" y="30" width="360" height="1470" as="geometry" />
        </mxCell>
        <mxCell id="O8FG5qYLEpIlAXNOrkcD-56" value="smb" style="shape=umlFrame;whiteSpace=wrap;html=1;" parent="1" vertex="1">
          <mxGeometry x="1290" y="40" width="190" height="160" as="geometry" />
        </mxCell>
        <mxCell id="O8FG5qYLEpIlAXNOrkcD-57" value="device" style="shape=umlFrame;whiteSpace=wrap;html=1;" parent="1" vertex="1">
          <mxGeometry x="1290" y="240" width="190" height="160" as="geometry" />
        </mxCell>
        <mxCell id="O8FG5qYLEpIlAXNOrkcD-2" value="domain" style="shape=umlFrame;whiteSpace=wrap;html=1;" parent="1" vertex="1">
          <mxGeometry x="40" y="40" width="410" height="360" as="geometry" />
        </mxCell>
        <mxCell id="O8FG5qYLEpIlAXNOrkcD-3" value="UseCase" style="rounded=0;whiteSpace=wrap;html=1;" parent="1" vertex="1">
          <mxGeometry x="80" y="120" width="120" height="80" as="geometry" />
        </mxCell>
        <mxCell id="O8FG5qYLEpIlAXNOrkcD-4" value="Intractor" style="shape=umlFrame;whiteSpace=wrap;html=1;" parent="1" vertex="1">
          <mxGeometry x="240" y="50" width="200" height="340" as="geometry" />
        </mxCell>
        <mxCell id="O8FG5qYLEpIlAXNOrkcD-6" style="edgeStyle=orthogonalEdgeStyle;rounded=0;orthogonalLoop=1;jettySize=auto;html=1;endArrow=block;endFill=0;dashed=1;" parent="1" source="O8FG5qYLEpIlAXNOrkcD-5" target="O8FG5qYLEpIlAXNOrkcD-3" edge="1">
          <mxGeometry relative="1" as="geometry" />
        </mxCell>
        <mxCell id="O8FG5qYLEpIlAXNOrkcD-8" style="edgeStyle=orthogonalEdgeStyle;rounded=0;orthogonalLoop=1;jettySize=auto;html=1;" parent="1" source="O8FG5qYLEpIlAXNOrkcD-5" edge="1">
          <mxGeometry relative="1" as="geometry">
            <mxPoint x="340" y="240" as="targetPoint" />
          </mxGeometry>
        </mxCell>
        <mxCell id="O8FG5qYLEpIlAXNOrkcD-5" value="Interactor" style="rounded=0;whiteSpace=wrap;html=1;" parent="1" vertex="1">
          <mxGeometry x="280" y="120" width="120" height="80" as="geometry" />
        </mxCell>
        <mxCell id="O8FG5qYLEpIlAXNOrkcD-11" style="edgeStyle=orthogonalEdgeStyle;rounded=0;orthogonalLoop=1;jettySize=auto;html=1;dashed=1;entryX=1;entryY=0.5;entryDx=0;entryDy=0;endArrow=block;endFill=0;" parent="1" edge="1">
          <mxGeometry relative="1" as="geometry">
            <mxPoint x="400" y="280" as="targetPoint" />
            <mxPoint x="520" y="280" as="sourcePoint" />
          </mxGeometry>
        </mxCell>
        <mxCell id="O8FG5qYLEpIlAXNOrkcD-12" value="Remote&lt;br&gt;DataSource" style="rounded=0;whiteSpace=wrap;html=1;" parent="1" vertex="1">
          <mxGeometry x="720" y="80" width="120" height="80" as="geometry" />
        </mxCell>
        <mxCell id="O8FG5qYLEpIlAXNOrkcD-13" value="Local&lt;br&gt;DataSource" style="rounded=0;whiteSpace=wrap;html=1;" parent="1" vertex="1">
          <mxGeometry x="720" y="1090" width="120" height="80" as="geometry" />
        </mxCell>
        <mxCell id="O8FG5qYLEpIlAXNOrkcD-14" style="edgeStyle=orthogonalEdgeStyle;rounded=0;orthogonalLoop=1;jettySize=auto;html=1;exitX=1;exitY=0.5;exitDx=0;exitDy=0;" parent="1" target="O8FG5qYLEpIlAXNOrkcD-12" edge="1">
          <mxGeometry relative="1" as="geometry">
            <mxPoint x="640" y="280" as="sourcePoint" />
            <mxPoint x="570" y="280" as="targetPoint" />
            <Array as="points">
              <mxPoint x="680" y="280" />
              <mxPoint x="680" y="120" />
            </Array>
          </mxGeometry>
        </mxCell>
        <mxCell id="O8FG5qYLEpIlAXNOrkcD-15" style="edgeStyle=orthogonalEdgeStyle;rounded=0;orthogonalLoop=1;jettySize=auto;html=1;" parent="1" target="O8FG5qYLEpIlAXNOrkcD-13" edge="1">
          <mxGeometry relative="1" as="geometry">
            <mxPoint x="640" y="280" as="sourcePoint" />
            <mxPoint x="1040" y="220" as="targetPoint" />
            <Array as="points">
              <mxPoint x="680" y="280" />
              <mxPoint x="680" y="1130" />
            </Array>
          </mxGeometry>
        </mxCell>
        <mxCell id="O8FG5qYLEpIlAXNOrkcD-16" value="database" style="shape=umlFrame;whiteSpace=wrap;html=1;" parent="1" vertex="1">
          <mxGeometry x="890" y="1050" width="390" height="250" as="geometry" />
        </mxCell>
        <mxCell id="O8FG5qYLEpIlAXNOrkcD-18" value="Remote&lt;br&gt;DataSourceImpl" style="rounded=0;whiteSpace=wrap;html=1;" parent="1" vertex="1">
          <mxGeometry x="920" y="80" width="120" height="80" as="geometry" />
        </mxCell>
        <mxCell id="O8FG5qYLEpIlAXNOrkcD-19" style="edgeStyle=orthogonalEdgeStyle;rounded=0;orthogonalLoop=1;jettySize=auto;html=1;dashed=1;endArrow=block;endFill=0;" parent="1" source="O8FG5qYLEpIlAXNOrkcD-18" target="O8FG5qYLEpIlAXNOrkcD-12" edge="1">
          <mxGeometry relative="1" as="geometry">
            <mxPoint x="630" y="310" as="targetPoint" />
            <mxPoint x="800" y="310" as="sourcePoint" />
          </mxGeometry>
        </mxCell>
        <mxCell id="O8FG5qYLEpIlAXNOrkcD-22" value="SmbClient" style="rounded=0;whiteSpace=wrap;html=1;" parent="1" vertex="1">
          <mxGeometry x="1320" y="80" width="120" height="80" as="geometry" />
        </mxCell>
        <mxCell id="O8FG5qYLEpIlAXNOrkcD-23" value="DeviceClient" style="rounded=0;whiteSpace=wrap;html=1;" parent="1" vertex="1">
          <mxGeometry x="1320" y="280" width="120" height="80" as="geometry" />
        </mxCell>
        <mxCell id="O8FG5qYLEpIlAXNOrkcD-25" style="edgeStyle=orthogonalEdgeStyle;rounded=0;orthogonalLoop=1;jettySize=auto;html=1;" parent="1" source="O8FG5qYLEpIlAXNOrkcD-18" target="O8FG5qYLEpIlAXNOrkcD-28" edge="1">
          <mxGeometry relative="1" as="geometry">
            <mxPoint x="1360" y="270" as="sourcePoint" />
            <mxPoint x="1460" y="210" as="targetPoint" />
          </mxGeometry>
        </mxCell>
        <mxCell id="O8FG5qYLEpIlAXNOrkcD-28" value="FileClient" style="rounded=0;whiteSpace=wrap;html=1;" parent="1" vertex="1">
          <mxGeometry x="1120" y="80" width="120" height="80" as="geometry" />
        </mxCell>
        <mxCell id="O8FG5qYLEpIlAXNOrkcD-29" style="edgeStyle=orthogonalEdgeStyle;rounded=0;orthogonalLoop=1;jettySize=auto;html=1;endArrow=block;endFill=0;dashed=1;" parent="1" source="O8FG5qYLEpIlAXNOrkcD-23" target="O8FG5qYLEpIlAXNOrkcD-28" edge="1">
          <mxGeometry relative="1" as="geometry">
            <mxPoint x="1100" y="270" as="targetPoint" />
            <mxPoint x="1240" y="270" as="sourcePoint" />
            <Array as="points">
              <mxPoint x="1280" y="330" />
              <mxPoint x="1280" y="120" />
            </Array>
          </mxGeometry>
        </mxCell>
        <mxCell id="O8FG5qYLEpIlAXNOrkcD-30" style="edgeStyle=orthogonalEdgeStyle;rounded=0;orthogonalLoop=1;jettySize=auto;html=1;endArrow=block;endFill=0;dashed=1;" parent="1" source="O8FG5qYLEpIlAXNOrkcD-22" target="O8FG5qYLEpIlAXNOrkcD-28" edge="1">
          <mxGeometry relative="1" as="geometry">
            <mxPoint x="1540" y="270" as="targetPoint" />
            <mxPoint x="1640" y="270" as="sourcePoint" />
            <Array as="points">
              <mxPoint x="1300" y="120" />
              <mxPoint x="1300" y="120" />
            </Array>
          </mxGeometry>
        </mxCell>
        <mxCell id="O8FG5qYLEpIlAXNOrkcD-32" value="FileReader" style="rounded=0;whiteSpace=wrap;html=1;" parent="1" vertex="1">
          <mxGeometry x="1120" y="480" width="120" height="80" as="geometry" />
        </mxCell>
        <mxCell id="O8FG5qYLEpIlAXNOrkcD-71" value="Datastore&lt;br&gt;DataSourceImpl" style="rounded=0;whiteSpace=wrap;html=1;" parent="1" vertex="1">
          <mxGeometry x="920" y="1371" width="160" height="80" as="geometry" />
        </mxCell>
        <mxCell id="O8FG5qYLEpIlAXNOrkcD-74" value="DB-Entity" style="rounded=0;whiteSpace=wrap;html=1;fillColor=#f8cecc;strokeColor=#b85450;" parent="1" vertex="1">
          <mxGeometry x="1020" y="1210" width="120" height="80" as="geometry" />
        </mxCell>
        <mxCell id="6y64tXu3wKap0ylWxeqq-1" value="Entity" style="rounded=0;whiteSpace=wrap;html=1;fillColor=#d5e8d4;strokeColor=#82b366;" parent="1" vertex="1">
          <mxGeometry x="80" y="280" width="120" height="80" as="geometry" />
        </mxCell>
        <mxCell id="6y64tXu3wKap0ylWxeqq-13" value="" style="group" parent="1" vertex="1" connectable="0">
          <mxGeometry x="30" y="630" width="310" height="190" as="geometry" />
        </mxCell>
        <mxCell id="6y64tXu3wKap0ylWxeqq-4" value="" style="shape=note;size=20;whiteSpace=wrap;html=1;" parent="6y64tXu3wKap0ylWxeqq-13" vertex="1">
          <mxGeometry width="310" height="190" as="geometry" />
        </mxCell>
        <mxCell id="6y64tXu3wKap0ylWxeqq-9" value="依存" style="text;html=1;strokeColor=none;fillColor=none;align=center;verticalAlign=middle;whiteSpace=wrap;rounded=0;" parent="6y64tXu3wKap0ylWxeqq-13" vertex="1">
          <mxGeometry x="20" y="80" width="60" height="30" as="geometry" />
        </mxCell>
        <mxCell id="6y64tXu3wKap0ylWxeqq-10" style="edgeStyle=orthogonalEdgeStyle;rounded=0;orthogonalLoop=1;jettySize=auto;html=1;endArrow=block;endFill=1;" parent="6y64tXu3wKap0ylWxeqq-13" edge="1">
          <mxGeometry relative="1" as="geometry">
            <mxPoint x="90" y="69.5" as="targetPoint" />
            <mxPoint x="20" y="69.5" as="sourcePoint" />
          </mxGeometry>
        </mxCell>
        <mxCell id="6y64tXu3wKap0ylWxeqq-11" style="edgeStyle=orthogonalEdgeStyle;rounded=0;orthogonalLoop=1;jettySize=auto;html=1;dashed=1;endArrow=block;endFill=0;" parent="6y64tXu3wKap0ylWxeqq-13" edge="1">
          <mxGeometry relative="1" as="geometry">
            <mxPoint x="90" y="19.5" as="targetPoint" />
            <mxPoint x="20" y="19.5" as="sourcePoint" />
          </mxGeometry>
        </mxCell>
        <mxCell id="OX88HGKNP1VF6WxN3wnq-1" value="" style="edgeStyle=orthogonalEdgeStyle;rounded=0;orthogonalLoop=1;jettySize=auto;html=1;" parent="6y64tXu3wKap0ylWxeqq-13" source="6y64tXu3wKap0ylWxeqq-12" target="6y64tXu3wKap0ylWxeqq-9" edge="1">
          <mxGeometry relative="1" as="geometry" />
        </mxCell>
        <mxCell id="6y64tXu3wKap0ylWxeqq-12" value="実装" style="text;html=1;strokeColor=none;fillColor=none;align=center;verticalAlign=middle;whiteSpace=wrap;rounded=0;" parent="6y64tXu3wKap0ylWxeqq-13" vertex="1">
          <mxGeometry x="20" y="29.5" width="60" height="30" as="geometry" />
        </mxCell>
        <mxCell id="6y64tXu3wKap0ylWxeqq-28" style="edgeStyle=orthogonalEdgeStyle;rounded=0;orthogonalLoop=1;jettySize=auto;html=1;endArrow=none;endFill=0;" parent="1" source="6y64tXu3wKap0ylWxeqq-15" target="O8FG5qYLEpIlAXNOrkcD-74" edge="1">
          <mxGeometry relative="1" as="geometry" />
        </mxCell>
        <mxCell id="6y64tXu3wKap0ylWxeqq-15" value="Dao" style="rounded=0;whiteSpace=wrap;html=1;" parent="1" vertex="1">
          <mxGeometry x="1120" y="1090" width="120" height="80" as="geometry" />
        </mxCell>
        <mxCell id="6y64tXu3wKap0ylWxeqq-16" value="Local&lt;br&gt;DataSourceImpl" style="rounded=0;whiteSpace=wrap;html=1;" parent="1" vertex="1">
          <mxGeometry x="920" y="1090" width="120" height="80" as="geometry" />
        </mxCell>
        <mxCell id="6y64tXu3wKap0ylWxeqq-20" value="zip" style="shape=umlFrame;whiteSpace=wrap;html=1;" parent="1" vertex="1">
          <mxGeometry x="1290" y="680" width="190" height="160" as="geometry" />
        </mxCell>
        <mxCell id="6y64tXu3wKap0ylWxeqq-24" style="edgeStyle=orthogonalEdgeStyle;rounded=0;orthogonalLoop=1;jettySize=auto;html=1;dashed=1;endArrow=block;endFill=0;" parent="1" source="6y64tXu3wKap0ylWxeqq-21" target="O8FG5qYLEpIlAXNOrkcD-32" edge="1">
          <mxGeometry relative="1" as="geometry">
            <Array as="points">
              <mxPoint x="1260" y="760" />
              <mxPoint x="1260" y="530" />
            </Array>
          </mxGeometry>
        </mxCell>
        <mxCell id="6y64tXu3wKap0ylWxeqq-21" value="Zip&lt;br&gt;FileReader" style="rounded=0;whiteSpace=wrap;html=1;" parent="1" vertex="1">
          <mxGeometry x="1320" y="720" width="120" height="80" as="geometry" />
        </mxCell>
        <mxCell id="6y64tXu3wKap0ylWxeqq-22" value="pdf" style="shape=umlFrame;whiteSpace=wrap;html=1;" parent="1" vertex="1">
          <mxGeometry x="1290" y="850" width="190" height="160" as="geometry" />
        </mxCell>
        <mxCell id="6y64tXu3wKap0ylWxeqq-25" style="edgeStyle=orthogonalEdgeStyle;rounded=0;orthogonalLoop=1;jettySize=auto;html=1;dashed=1;endArrow=block;endFill=0;" parent="1" source="6y64tXu3wKap0ylWxeqq-23" target="O8FG5qYLEpIlAXNOrkcD-32" edge="1">
          <mxGeometry relative="1" as="geometry">
            <Array as="points">
              <mxPoint x="1250" y="930" />
              <mxPoint x="1250" y="540" />
            </Array>
          </mxGeometry>
        </mxCell>
        <mxCell id="6y64tXu3wKap0ylWxeqq-23" value="Document&lt;br&gt;FileReader" style="rounded=0;whiteSpace=wrap;html=1;" parent="1" vertex="1">
          <mxGeometry x="1320" y="890" width="120" height="80" as="geometry" />
        </mxCell>
        <mxCell id="6y64tXu3wKap0ylWxeqq-26" style="edgeStyle=orthogonalEdgeStyle;rounded=0;orthogonalLoop=1;jettySize=auto;html=1;dashed=1;endArrow=block;endFill=0;" parent="1" source="6y64tXu3wKap0ylWxeqq-16" target="O8FG5qYLEpIlAXNOrkcD-13" edge="1">
          <mxGeometry relative="1" as="geometry">
            <mxPoint x="850" y="460" as="targetPoint" />
            <mxPoint x="930" y="460" as="sourcePoint" />
          </mxGeometry>
        </mxCell>
        <mxCell id="6y64tXu3wKap0ylWxeqq-27" style="edgeStyle=orthogonalEdgeStyle;rounded=0;orthogonalLoop=1;jettySize=auto;html=1;" parent="1" source="6y64tXu3wKap0ylWxeqq-16" target="6y64tXu3wKap0ylWxeqq-15" edge="1">
          <mxGeometry relative="1" as="geometry">
            <mxPoint x="1040" y="1089.5" as="sourcePoint" />
            <mxPoint x="1120" y="1089.5" as="targetPoint" />
          </mxGeometry>
        </mxCell>
        <mxCell id="6y64tXu3wKap0ylWxeqq-29" value="" style="rounded=0;whiteSpace=wrap;html=1;fillColor=#d5e8d4;strokeColor=#82b366;" parent="1" vertex="1">
          <mxGeometry x="170" y="180" width="30" height="20" as="geometry" />
        </mxCell>
        <mxCell id="6y64tXu3wKap0ylWxeqq-30" value="" style="rounded=0;whiteSpace=wrap;html=1;fillColor=#d5e8d4;strokeColor=#82b366;" parent="1" vertex="1">
          <mxGeometry x="370" y="180" width="30" height="20" as="geometry" />
        </mxCell>
        <mxCell id="6y64tXu3wKap0ylWxeqq-33" value="Model" style="rounded=0;whiteSpace=wrap;html=1;fillColor=#fff2cc;strokeColor=#d6b656;" parent="1" vertex="1">
          <mxGeometry x="540" y="380" width="120" height="80" as="geometry" />
        </mxCell>
        <mxCell id="6y64tXu3wKap0ylWxeqq-36" value="" style="rounded=0;whiteSpace=wrap;html=1;fillColor=#fff2cc;strokeColor=#d6b656;" parent="1" vertex="1">
          <mxGeometry x="810" y="140" width="30" height="20" as="geometry" />
        </mxCell>
        <mxCell id="6y64tXu3wKap0ylWxeqq-37" value="" style="rounded=0;whiteSpace=wrap;html=1;fillColor=#fff2cc;strokeColor=#d6b656;" parent="1" vertex="1">
          <mxGeometry x="1010" y="140" width="30" height="20" as="geometry" />
        </mxCell>
        <mxCell id="6y64tXu3wKap0ylWxeqq-38" value="" style="rounded=0;whiteSpace=wrap;html=1;fillColor=#fff2cc;strokeColor=#d6b656;" parent="1" vertex="1">
          <mxGeometry x="1210" y="140" width="30" height="20" as="geometry" />
        </mxCell>
        <mxCell id="6y64tXu3wKap0ylWxeqq-39" value="" style="rounded=0;whiteSpace=wrap;html=1;fillColor=#fff2cc;strokeColor=#d6b656;" parent="1" vertex="1">
          <mxGeometry x="1410" y="140" width="30" height="20" as="geometry" />
        </mxCell>
        <mxCell id="6y64tXu3wKap0ylWxeqq-40" value="" style="rounded=0;whiteSpace=wrap;html=1;fillColor=#fff2cc;strokeColor=#d6b656;" parent="1" vertex="1">
          <mxGeometry x="1410" y="340" width="30" height="20" as="geometry" />
        </mxCell>
        <mxCell id="6y64tXu3wKap0ylWxeqq-41" value="" style="rounded=0;whiteSpace=wrap;html=1;fillColor=#fff2cc;strokeColor=#d6b656;" parent="1" vertex="1">
          <mxGeometry x="1410" y="780" width="30" height="20" as="geometry" />
        </mxCell>
        <mxCell id="6y64tXu3wKap0ylWxeqq-42" value="" style="rounded=0;whiteSpace=wrap;html=1;fillColor=#fff2cc;strokeColor=#d6b656;" parent="1" vertex="1">
          <mxGeometry x="1410" y="950" width="30" height="20" as="geometry" />
        </mxCell>
        <mxCell id="6y64tXu3wKap0ylWxeqq-43" value="" style="rounded=0;whiteSpace=wrap;html=1;fillColor=#fff2cc;strokeColor=#d6b656;" parent="1" vertex="1">
          <mxGeometry x="1210" y="540" width="30" height="20" as="geometry" />
        </mxCell>
        <mxCell id="6y64tXu3wKap0ylWxeqq-44" value="" style="rounded=0;whiteSpace=wrap;html=1;fillColor=#fff2cc;strokeColor=#d6b656;" parent="1" vertex="1">
          <mxGeometry x="810" y="1150" width="30" height="20" as="geometry" />
        </mxCell>
        <mxCell id="6y64tXu3wKap0ylWxeqq-45" value="" style="rounded=0;whiteSpace=wrap;html=1;fillColor=#fff2cc;strokeColor=#d6b656;" parent="1" vertex="1">
          <mxGeometry x="920" y="1150" width="30" height="20" as="geometry" />
        </mxCell>
        <mxCell id="6y64tXu3wKap0ylWxeqq-46" value="" style="rounded=0;whiteSpace=wrap;html=1;fillColor=#f8cecc;strokeColor=#b85450;" parent="1" vertex="1">
          <mxGeometry x="1010" y="1150" width="30" height="20" as="geometry" />
        </mxCell>
        <mxCell id="6y64tXu3wKap0ylWxeqq-47" value="" style="rounded=0;whiteSpace=wrap;html=1;fillColor=#f8cecc;strokeColor=#b85450;" parent="1" vertex="1">
          <mxGeometry x="1210" y="1150" width="30" height="20" as="geometry" />
        </mxCell>
        <mxCell id="Eqflxc2KB6VPxhKgkxIk-1" value="DataStore" style="rounded=0;whiteSpace=wrap;html=1;fillColor=#dae8fc;strokeColor=#6c8ebf;" parent="1" vertex="1">
          <mxGeometry x="1610" y="130" width="120" height="80" as="geometry" />
        </mxCell>
        <mxCell id="SMw5CCcF6BhBNA1QAuJh-1" value="Settings" style="rounded=0;whiteSpace=wrap;html=1;fillColor=#d5e8d4;strokeColor=#82b366;" parent="1" vertex="1">
          <mxGeometry x="185" y="450" width="120" height="80" as="geometry" />
        </mxCell>
        <mxCell id="iccopPgQxlsV0LrsbhzL-3" value="Datastore&lt;br&gt;DataSource" style="rounded=0;whiteSpace=wrap;html=1;" parent="1" vertex="1">
          <mxGeometry x="720" y="1371" width="120" height="80" as="geometry" />
        </mxCell>
        <mxCell id="iccopPgQxlsV0LrsbhzL-4" style="edgeStyle=orthogonalEdgeStyle;rounded=0;orthogonalLoop=1;jettySize=auto;html=1;dashed=1;endArrow=block;endFill=0;" parent="1" source="O8FG5qYLEpIlAXNOrkcD-71" target="iccopPgQxlsV0LrsbhzL-3" edge="1">
          <mxGeometry relative="1" as="geometry">
            <mxPoint x="850" y="1100" as="targetPoint" />
            <mxPoint x="930" y="1100" as="sourcePoint" />
          </mxGeometry>
        </mxCell>
        <mxCell id="iccopPgQxlsV0LrsbhzL-5" style="edgeStyle=orthogonalEdgeStyle;rounded=0;orthogonalLoop=1;jettySize=auto;html=1;" parent="1" target="iccopPgQxlsV0LrsbhzL-3" edge="1">
          <mxGeometry relative="1" as="geometry">
            <mxPoint x="640" y="280" as="sourcePoint" />
            <mxPoint x="730" y="890" as="targetPoint" />
            <Array as="points">
              <mxPoint x="680" y="280" />
              <mxPoint x="680" y="1411" />
            </Array>
          </mxGeometry>
        </mxCell>
        <mxCell id="iccopPgQxlsV0LrsbhzL-6" style="edgeStyle=orthogonalEdgeStyle;rounded=0;orthogonalLoop=1;jettySize=auto;html=1;endArrow=none;endFill=0;" parent="1" source="6y64tXu3wKap0ylWxeqq-16" target="O8FG5qYLEpIlAXNOrkcD-74" edge="1">
          <mxGeometry relative="1" as="geometry">
            <mxPoint x="1190" y="1180" as="sourcePoint" />
            <mxPoint x="1090" y="1220" as="targetPoint" />
          </mxGeometry>
        </mxCell>
        <mxCell id="iccopPgQxlsV0LrsbhzL-8" style="edgeStyle=orthogonalEdgeStyle;rounded=0;orthogonalLoop=1;jettySize=auto;html=1;exitX=0.5;exitY=1;exitDx=0;exitDy=0;" parent="1" source="O8FG5qYLEpIlAXNOrkcD-28" target="O8FG5qYLEpIlAXNOrkcD-32" edge="1">
          <mxGeometry relative="1" as="geometry">
            <mxPoint x="1050" y="130" as="sourcePoint" />
            <mxPoint x="1130" y="130" as="targetPoint" />
            <Array as="points">
              <mxPoint x="1180" y="330" />
              <mxPoint x="1180" y="330" />
            </Array>
          </mxGeometry>
        </mxCell>
        <mxCell id="V4WoSLVtZ78Q0ZOOBIt7-6" style="edgeStyle=orthogonalEdgeStyle;rounded=0;orthogonalLoop=1;jettySize=auto;html=1;dashed=1;entryX=0;entryY=0.5;entryDx=0;entryDy=0;" parent="1" source="O8FG5qYLEpIlAXNOrkcD-12" target="O8FG5qYLEpIlAXNOrkcD-32" edge="1">
          <mxGeometry relative="1" as="geometry">
            <mxPoint x="1190" y="170" as="sourcePoint" />
            <mxPoint x="1190.0526315789475" y="490" as="targetPoint" />
            <Array as="points">
              <mxPoint x="780" y="520" />
            </Array>
          </mxGeometry>
        </mxCell>
        <mxCell id="9QfOavW66OiXsci2EsHu-4" style="edgeStyle=orthogonalEdgeStyle;rounded=0;orthogonalLoop=1;jettySize=auto;html=1;" parent="1" source="9QfOavW66OiXsci2EsHu-3" target="O8FG5qYLEpIlAXNOrkcD-28" edge="1">
          <mxGeometry relative="1" as="geometry">
            <Array as="points">
              <mxPoint x="1260" y="510" />
              <mxPoint x="1260" y="190" />
              <mxPoint x="1190" y="190" />
            </Array>
            <mxPoint x="1070" y="480" as="sourcePoint" />
          </mxGeometry>
        </mxCell>
        <mxCell id="9QfOavW66OiXsci2EsHu-5" style="edgeStyle=orthogonalEdgeStyle;rounded=0;orthogonalLoop=1;jettySize=auto;html=1;dashed=1;endArrow=block;endFill=0;" parent="1" source="9QfOavW66OiXsci2EsHu-3" target="O8FG5qYLEpIlAXNOrkcD-32" edge="1">
          <mxGeometry relative="1" as="geometry">
            <Array as="points">
              <mxPoint x="1230" y="520" />
              <mxPoint x="1230" y="520" />
            </Array>
            <mxPoint x="1020" y="510" as="targetPoint" />
          </mxGeometry>
        </mxCell>
        <mxCell id="9QfOavW66OiXsci2EsHu-3" value="ImageFolder&lt;br&gt;FileReader" style="rounded=0;whiteSpace=wrap;html=1;" parent="1" vertex="1">
          <mxGeometry x="1320" y="480" width="120" height="80" as="geometry" />
        </mxCell>
        <mxCell id="OX88HGKNP1VF6WxN3wnq-4" value="folder" style="shape=umlFrame;whiteSpace=wrap;html=1;" parent="1" vertex="1">
          <mxGeometry x="1290" y="440" width="190" height="160" as="geometry" />
        </mxCell>
      </root>
    </mxGraphModel>
  </diagram>
</mxfile>
